<svg width="2438" height="261" viewBox="0 0 2438 261" fill="none" xmlns="http://www.w3.org/2000/svg">
<path d="M78.4562 53.8642C81.6909 34.8831 98.1402 21 117.395 21H304.978C329.445 21 348.027 43.0166 343.917 67.1358L316.991 225.136C313.756 244.117 297.307 258 278.052 258H90.4689C66.002 258 47.42 235.983 51.5303 211.864L78.4562 53.8642Z" fill="#09AA39"/>
<path fill-rule="evenodd" clip-rule="evenodd" d="M181.425 258.003H89.6591C65.1265 258.003 46.5275 235.874 50.7479 211.708L66.4244 121.941H167.816C194.038 121.941 212.981 147.022 205.81 172.245L181.425 258.003Z" fill="#009A3D"/>
<path d="M101 56C101 46.6112 108.611 39 118 39H359V73H118C108.611 73 101 65.3888 101 56Z" fill="white"/>
<path d="M159.841 186.176C155.75 186.167 151.754 184.943 148.36 182.659C144.967 180.375 142.328 177.133 140.78 173.347C139.233 169.56 138.845 165.399 139.667 161.392C140.489 157.384 142.483 153.712 145.397 150.84C148.311 147.968 152.012 146.027 156.031 145.263C160.05 144.5 164.206 144.947 167.97 146.55C171.734 148.152 174.937 150.837 177.172 154.263C179.407 157.689 180.573 161.702 180.523 165.793C180.529 168.496 179.996 171.174 178.955 173.669C177.914 176.164 176.386 178.427 174.461 180.325C172.535 182.223 170.25 183.718 167.74 184.722C165.23 185.727 162.545 186.221 159.841 186.176Z" fill="#F4BF00"/>
<path d="M350 71.9551L316.836 72.764C329.344 72.764 339.485 82.9041 339.485 95.4125C339.485 98.2624 338.958 100.989 337.997 103.501H350V71.9551Z" fill="white"/>
<rect x="305.078" y="24.2344" width="63.9014" height="29.9285" fill="white"/>
<mask id="mask0_1841_36290" style="mask-type:alpha" maskUnits="userSpaceOnUse" x="110" y="-26" width="242" height="99">
<path d="M129.55 -25.1055H351.991V72.7688H110.137L129.55 -25.1055Z" fill="#D9D9D9"/>
</mask>
<g mask="url(#mask0_1841_36290)">
<path d="M325.038 21.9171C326.636 13.9105 320.511 6.44336 312.346 6.44336H149.69C141.976 6.44336 135.334 11.8907 133.825 19.4563L97.1429 203.353C96.3444 207.356 99.4067 211.09 103.489 211.09H287.304L325.038 21.9171Z" fill="#F4BF00"/>
</g>
<path fill-rule="evenodd" clip-rule="evenodd" d="M1580.66 44.6952C1579.9 46.6719 1579.78 50.4227 1580.39 53.0275C1581 55.6297 1586.68 99.2932 1593.02 150.056C1599.35 200.818 1605.21 245.523 1606.02 249.402C1607.45 256.191 1608.1 256.452 1623.63 256.452C1633.49 256.452 1640.73 255.206 1642.25 253.247C1643.63 251.486 1661.88 212.681 1682.81 167.012C1716.32 93.9016 1721.09 84.8694 1722.73 91.3814C1723.75 95.4527 1729.27 131.661 1735 171.848C1740.73 212.035 1746 247.512 1746.72 250.684C1747.9 255.924 1749.51 256.452 1764.31 256.452C1774.24 256.452 1781.6 255.203 1783.18 253.247C1785.57 250.291 1809.47 197.298 1857.31 88.8715C1869.3 61.7109 1875.49 44.7311 1873.97 43.2082C1872.64 41.8751 1865.92 41.1444 1859.03 41.5828L1846.51 42.3776L1809.52 127.638C1789.18 174.529 1771.74 212.025 1770.76 210.961C1769.78 209.894 1764.04 173.835 1758.01 130.828C1751.96 87.8203 1746.1 50.0381 1744.98 46.8642C1743.19 41.8238 1741.14 41.0957 1728.75 41.0957C1715.88 41.0957 1714.15 41.7777 1710.11 48.4358C1707.65 52.4711 1688.95 92.1813 1668.53 136.678C1648.12 181.177 1631.17 216.811 1630.87 215.868C1630.57 214.922 1626.2 177.232 1621.18 132.109C1616.14 86.9871 1611.42 48.0486 1610.67 45.5823C1609.6 42.0417 1606.44 41.0957 1595.68 41.0957C1586.33 41.0957 1581.6 42.2289 1580.66 44.6952ZM2054.2 45.5823C2051.2 55.6348 2021.91 242.197 2021.91 251.268C2021.91 255.773 2023.57 256.452 2034.56 256.452C2041.52 256.452 2047.82 255.462 2048.57 254.252C2049.78 252.291 2058.6 198.608 2076.47 84.408C2079.69 63.8107 2081.89 45.6413 2081.35 44.0286C2080.8 42.3648 2075 41.0957 2067.96 41.0957C2058.35 41.0957 2055.24 42.111 2054.2 45.5823ZM2124.87 44.3004C2123.41 46.0643 2118.02 74.6169 2112.89 107.754C2107.76 140.89 2100.74 185.266 2097.3 206.369C2088.69 259.157 2088.35 256.452 2103.69 256.452C2110.65 256.452 2117.01 255.383 2117.81 254.075C2118.62 252.768 2125.04 214.983 2132.08 170.112C2139.12 125.238 2146.38 79.2215 2148.21 67.8512C2150.04 56.4809 2151.08 45.8105 2150.52 44.1363C2149.17 40.0753 2128.25 40.2086 2124.87 44.3004ZM2375.72 58.637C2373.86 59.8573 2370.94 69.9637 2369.23 81.0981L2366.11 101.344L2352.23 102.626C2338.42 103.9 2338.33 103.962 2336.25 114.053C2333.27 128.525 2334.92 130.828 2348.3 130.828C2355.85 130.828 2359.92 131.945 2359.94 134.032C2359.96 135.796 2356.95 157.675 2353.24 182.657C2345.87 232.314 2346.31 242.146 2356.31 251.555C2362.01 256.926 2365.77 257.842 2385.07 258.559C2411.49 259.539 2415.98 257.252 2416.89 242.351L2417.52 232.096L2400.82 231.973C2391.64 231.904 2382.71 230.971 2380.98 229.899C2375.56 226.546 2376.46 216.95 2389.47 139.16L2390.86 130.828H2410.92C2433.62 130.828 2435.94 129.348 2437.17 114.125L2438 103.908L2416.65 103.159L2395.3 102.411L2397.33 89.0586C2398.44 81.716 2399.4 71.6686 2399.47 66.7334C2399.59 58.0627 2399.25 57.7371 2389.35 57.091C2383.72 56.7244 2377.58 57.4192 2375.72 58.637ZM1923.08 100.308C1900.39 102.462 1876.96 109.13 1875.11 113.963C1873.08 119.252 1878.2 135.96 1881.84 135.922C1883.53 135.904 1892.22 133.596 1901.15 130.794C1928.02 122.359 1959.69 124.944 1965.63 136.055C1967.01 138.634 1968.14 145.436 1968.14 151.168V161.593H1949.12C1881.7 161.593 1852.28 178.99 1851.81 219.124C1851.49 246.523 1866.91 259.029 1900.97 259C1921.69 258.985 1933.69 255.929 1946.07 247.52L1955.33 241.223V248.838C1955.33 256.252 1955.67 256.452 1967.96 256.452C1982.94 256.452 1980.95 261.057 1990.12 205.177C1998.95 151.286 1999.53 128.764 1992.33 118.842C1981.06 103.311 1957.6 97.0345 1923.08 100.308ZM2236.12 100.375C2191.07 106.774 2162.99 144.236 2162.8 198.208C2162.7 225.366 2171.31 241.141 2192.19 252.047C2212.88 262.861 2268.17 260.023 2287.8 247.138C2292.8 243.864 2293.59 241.733 2292.27 235.142C2291.39 230.735 2289.68 226.138 2288.47 224.925C2287.24 223.697 2278.65 225.082 2269.05 228.051C2237.41 237.837 2205.18 233.24 2197.21 217.806C2195.15 213.819 2193.47 206.464 2193.47 201.459V192.358H2249.49C2297.64 192.358 2305.98 191.784 2308.89 188.266C2311.14 185.559 2312.33 176.252 2312.41 160.706C2312.52 139.616 2311.82 136.024 2305.51 125.282C2301.65 118.706 2294.74 111.017 2290.15 108.192C2282.79 103.664 2276.9 102.07 2256.2 99.0086C2253.38 98.5933 2244.35 99.2086 2236.12 100.375ZM2267.69 129.53C2278.29 135.019 2283.09 143.182 2283.09 155.755V166.72H2239.56C2215.61 166.72 2196.03 166.131 2196.03 165.41C2196.03 164.69 2198.47 158.903 2201.45 152.553C2206.79 141.172 2215.3 133.186 2227.12 128.443C2236.52 124.677 2259.51 125.295 2267.69 129.53ZM1962.07 192.999C1961.22 196.17 1960.51 200.17 1960.49 201.882C1960.43 207.558 1944.02 223.854 1933.59 228.597C1921.01 234.322 1898.83 234.75 1888.63 229.466C1882.42 226.253 1881.08 223.936 1881.08 216.48C1881.08 194.211 1893.46 188.353 1942.19 187.574C1963.22 187.235 1963.58 187.335 1962.07 192.999Z" fill="#00993D"/>
<path d="M1274.01 64.7552C1267.54 64.7416 1261.23 62.8232 1255.86 59.2436C1250.5 55.664 1246.33 50.5848 1243.89 44.651C1241.44 38.7171 1240.83 32.1964 1242.13 25.9167C1243.43 19.637 1246.58 13.8817 1251.18 9.38178C1255.79 4.88184 1261.63 1.8402 1267.99 0.643122C1274.34 -0.553961 1280.9 0.147554 1286.85 2.65852C1292.8 5.16948 1297.86 9.37662 1301.39 14.7457C1304.93 20.1148 1306.77 26.4037 1306.69 32.8136C1306.7 37.0502 1305.86 41.2463 1304.21 45.1563C1302.57 49.0664 1300.15 52.6121 1297.11 55.5861C1294.07 58.5601 1290.46 60.9028 1286.49 62.4771C1282.52 64.0515 1278.28 64.8259 1274.01 64.7552Z" fill="#F4BF00"/>
<path d="M580.845 139.675C579.257 138.831 577.781 137.793 576.454 136.584L582.387 134.124C604.544 124.784 618.623 106.404 619.259 86.1948C619.762 66.6841 609.371 54.652 593.818 46.3093C576.655 37.1356 556.945 34.8754 536.833 34.676C501.168 34.3104 475.156 34.676 439.457 34.4766C434.094 34.4766 432.083 35.6731 431.278 41.39C421.725 110.558 411.87 172.846 402.987 242.147C402.947 244.191 403.318 246.221 404.078 248.121C404.838 250.02 405.972 251.751 407.413 253.211C408.855 254.672 410.575 255.833 412.474 256.627C414.373 257.421 416.413 257.832 418.474 257.836C454.508 257.836 475.894 257.836 512.665 257.836C530.46 257.821 548.106 254.623 564.756 248.396C589.292 239.256 606.689 219.512 610.745 196.678C614.969 170.52 602.801 147.087 580.845 139.675ZM498.821 93.341C499.157 91.7123 501.939 88.8871 503.28 88.8871C512.079 88.6081 520.887 88.8301 529.66 89.5519C531.416 89.5991 533.139 90.0368 534.702 90.8326C536.265 91.6284 537.627 92.7621 538.689 94.1499C539.751 95.5377 540.484 97.1442 540.836 98.8509C541.188 100.558 541.149 102.321 540.722 104.01C539.941 107.937 537.875 111.499 534.845 114.144C531.815 116.788 527.989 118.367 523.962 118.635H516.755C511.123 118.635 505.492 118.635 499.995 118.635C496.643 118.635 495.268 117.704 495.838 114.214C496.609 107.367 497.246 100.354 498.654 93.3742L498.821 93.341ZM534.386 187.404C533.479 191.318 531.388 194.864 528.393 197.566C525.397 200.269 521.641 202 517.626 202.528C504.218 203.458 500.699 203.492 487.458 203.492C486.05 203.492 483.905 200.766 484.106 199.204C484.944 190.629 486.453 182.02 487.458 173.445C487.86 170.121 489.302 168.758 492.687 168.824C498.687 168.991 504.755 168.824 510.788 168.824C510.788 168.824 503.38 168.824 506.665 168.824C512.928 168.402 519.216 169.088 525.235 170.852C533.381 173.079 536.163 179.56 534.219 187.438L534.386 187.404Z" fill="#00993D"/>
<path d="M1405.74 114.98C1414.39 105.39 1425.51 98.3229 1437.92 94.5382C1476.73 82.9382 1515.21 101.186 1510.66 148.384C1507.3 183.317 1501.14 218.35 1496.34 253.349C1495.87 256.673 1494.53 257.969 1491.05 257.936C1471.5 257.936 1451.93 257.77 1432.32 257.936C1427.99 257.936 1427.66 256.041 1428.2 252.452C1432.02 226.127 1435.64 199.803 1439.42 173.445C1440.77 164.205 1439.42 156.261 1431.11 151.807C1417.44 144.395 1398.9 155.33 1396.08 172.947C1392.03 198.54 1388.67 224.133 1385.02 249.693C1383.88 257.87 1383.88 257.87 1375.54 257.87C1357.47 257.87 1339.43 257.703 1321.37 257.87C1316.71 257.87 1315.8 256.374 1316.44 252.02C1323.77 201.055 1330.96 150.09 1338.03 99.125C1338.7 94.3387 1340.41 93.0757 1345.03 93.1422C1363.8 93.3859 1382.62 93.3859 1401.48 93.1422C1406.11 93.1422 1407.25 94.6046 1406.37 98.9588C1405.33 104.111 1404.83 109.296 1404.13 114.481L1405.74 114.98Z" fill="#00993D"/>
<path d="M1221.74 175.338C1225.29 150.144 1228.98 124.916 1232.33 99.7218C1232.94 94.9688 1234.24 93.0742 1239.47 93.0742C1258.08 93.4066 1276.71 93.3401 1295.35 93.0742C1299.91 93.0742 1301.45 94.1046 1300.75 98.9906C1293.42 149.955 1286.21 200.92 1279.13 251.885C1278.56 256.107 1277.42 257.868 1272.66 257.802C1253.69 257.536 1234.69 257.536 1215.67 257.802C1210.91 257.802 1210.24 256.107 1210.85 251.885C1214.74 226.491 1218.09 200.931 1221.74 175.338Z" fill="#00993D"/>
<path d="M923.383 114.944C932.042 105.371 943.166 98.3163 955.562 94.5363C993.976 83.0027 1032.66 100.984 1028.3 147.717C1024.95 182.816 1018.78 218.049 1013.95 253.248C1013.48 256.571 1012.11 257.834 1008.69 257.801C989.116 257.801 969.54 257.635 949.964 257.801C945.573 257.801 945.305 255.873 945.841 252.317C949.629 225.993 953.282 199.635 957.07 173.31C958.378 164.07 957.07 156.126 948.757 151.639C935.115 144.26 916.712 155.196 913.729 172.845C910.745 190.494 908.433 208.941 905.851 227.023C904.611 235.665 903.27 244.307 902.231 252.982C901.796 256.704 900.22 257.801 896.566 257.768C877.225 257.768 857.817 257.768 838.409 257.768C834.353 257.768 833.481 256.372 834.018 252.516C841.37 201.175 848.61 149.822 855.739 98.4584C856.342 94.1707 857.951 93.0074 862.108 93.0738C881.08 93.0738 900.086 93.2733 919.092 93.0738C923.751 93.0738 924.857 94.5695 923.986 98.9236C922.947 104.076 922.444 109.227 921.707 114.413L923.383 114.944Z" fill="#00993D"/>
<path d="M736.923 237.798C728.074 243.582 720.364 250.129 711.716 254.018C676.252 270.072 636.262 254.351 635.022 213.402C634.835 206.671 635.182 199.936 636.061 193.259C640.285 162.016 644.91 130.805 649.1 99.5947C649.771 94.6422 651.346 93.1465 656.408 93.2462C674.978 93.5121 693.615 93.4789 712.252 93.2462C716.979 93.2462 718.219 94.5757 717.515 99.2623C713.593 125.853 709.906 152.443 706.219 178.834C705.046 187.31 705.984 195.087 713.426 199.508C720.867 203.929 732.633 201.27 738.499 192.528C741.819 187.713 744.101 182.27 745.203 176.541C749.292 150.981 752.812 125.387 756.164 99.7941C756.868 94.5425 758.678 93.1465 763.84 93.1465C782.41 93.4456 801.047 93.4124 819.718 93.1465C824.277 93.1465 825.282 94.5757 824.646 98.9631C817.316 149.928 810.12 200.893 803.059 251.858C802.422 256.544 800.813 257.94 796.086 257.907C777.315 257.663 758.51 257.663 739.672 257.907C735.147 257.907 733.739 256.578 734.711 252.124C735.683 247.67 736.253 242.352 736.923 237.798Z" fill="#00993D"/>
<path d="M1060.86 195.408C1068.8 199.496 1075.91 203.518 1083.38 206.942C1093.96 212.125 1105.55 214.949 1117.34 215.218C1119.05 215.443 1120.78 215.364 1122.47 214.985C1125.2 213.73 1127.87 212.32 1130.44 210.764C1128.87 208.604 1127.86 205.38 1125.65 204.515C1118.08 201.591 1110.06 199.563 1102.19 197.103C1087.2 192.417 1072.19 187.797 1062.47 175.166C1054.22 164.464 1053.25 151.9 1057.34 137.973C1066.19 108.059 1091.73 95.096 1115.23 90.908C1149.05 84.8919 1178.51 92.7361 1205.73 107.261C1209.08 109.056 1209.55 110.984 1206.94 114.706C1199.43 125.343 1192.17 136.123 1185.15 147.047C1182.7 150.836 1180.76 150.969 1177.27 149.54C1164.77 144.454 1152.17 139.568 1139.33 135.148C1134.79 133.905 1130.05 133.566 1125.38 134.151C1124.02 134.37 1122.71 134.875 1121.56 135.631C1120.4 136.387 1119.42 137.378 1118.68 138.538C1118.57 139.785 1118.83 141.036 1119.42 142.14C1120.02 143.244 1120.92 144.152 1122.03 144.754C1131.25 148.343 1141 150.903 1150.25 154.393C1159.69 157.502 1168.81 161.475 1177.51 166.259C1208.04 184.938 1197.42 228.414 1166.34 246.761C1152.32 254.793 1136.51 259.279 1120.32 259.823C1090.76 261.585 1064.07 255.569 1040.61 240.811C1036.35 238.119 1035.31 235.892 1038.83 230.84C1046.38 219.439 1053.25 207.64 1060.86 195.408Z" fill="#00993D"/>
</svg>
