<svg width="370" height="252" viewBox="0 0 370 252" fill="none" xmlns="http://www.w3.org/2000/svg">
<path d="M78.4562 47.8642C81.6909 28.8831 98.1402 15 117.395 15H304.978C329.445 15 348.027 37.0166 343.917 61.1358L316.991 219.136C313.756 238.117 297.307 252 278.052 252H90.4689C66.002 252 47.42 229.983 51.5303 205.864L78.4562 47.8642Z" fill="#09AA39"/>
<path fill-rule="evenodd" clip-rule="evenodd" d="M181.425 252.003H89.6591C65.1265 252.003 46.5275 229.874 50.7479 205.708L66.4244 115.941H167.816C194.038 115.941 212.981 141.022 205.81 166.245L181.425 252.003Z" fill="#009A3D"/>
<path d="M101 50C101 40.6112 108.611 33 118 33H359V67H118C108.611 67 101 59.3888 101 50Z" fill="white"/>
<path d="M159.841 180.176C155.75 180.167 151.754 178.943 148.36 176.659C144.967 174.375 142.328 171.133 140.78 167.347C139.233 163.56 138.845 159.399 139.667 155.392C140.489 151.384 142.483 147.712 145.397 144.84C148.311 141.968 152.012 140.027 156.031 139.263C160.05 138.5 164.206 138.947 167.97 140.55C171.734 142.152 174.937 144.837 177.172 148.263C179.407 151.689 180.573 155.702 180.523 159.793C180.529 162.496 179.996 165.174 178.955 167.669C177.914 170.164 176.386 172.427 174.461 174.325C172.535 176.223 170.25 177.718 167.74 178.722C165.23 179.727 162.545 180.221 159.841 180.176Z" fill="#F4BF00"/>
<path d="M350 65.9551L316.836 66.764C329.344 66.764 339.485 76.9041 339.485 89.4125C339.485 92.2624 338.958 94.9893 337.997 97.5013H350V65.9551Z" fill="white"/>
<rect x="305.078" y="18.2344" width="63.9014" height="29.9285" fill="white"/>
<mask id="mask0_1891_29730" style="mask-type:alpha" maskUnits="userSpaceOnUse" x="110" y="-32" width="242" height="99">
<path d="M129.55 -31.1055H351.991V66.7688H110.137L129.55 -31.1055Z" fill="#D9D9D9"/>
</mask>
<g mask="url(#mask0_1891_29730)">
<path d="M325.038 15.9171C326.636 7.9105 320.511 0.443359 312.346 0.443359H149.69C141.976 0.443359 135.334 5.89072 133.825 13.4563L97.1429 197.353C96.3444 201.356 99.4067 205.09 103.489 205.09H287.304L325.038 15.9171Z" fill="#F4BF00"/>
</g>
</svg>
